{"title":"Assassins Tale 2013 DVDRiP XViD UNiQUE","uid":8698180,"size":1507487744,"categoryP":"video","categoryS":"movies","magnet":"?xt=urn:btih:759077ea3ec69716784e6ba18176bb8057c5b8fe&amp;dn=Assassins+Tale+2013+DVDRiP+XViD+UNiQUE&amp;tr=udp%3A%2F%2Ftracker.openbittorrent.com%3A80&amp;tr=udp%3A%2F%2Fopen.demonii.com%3A1337&amp;tr=udp%3A%2F%2Ftracker.coppersurfer.tk%3A6969&amp;tr=udp%3A%2F%2Fexodus.desync.com%3A6969","seeders":8,"leechers":0,"uploader":"HeroMaster","files":-1,"time":1374003320,"description":"Assassins Tale 2013 DVDRiP XViD UNiQUE\n\n\nSource Used TTR.Assassins.Tale.2013.DVD-R.Final.TTR - Thanks\n &lt;a href=&quot;\nhttp://www.imdb.com/title/tt2663744/&quot; rel=&quot;nofollow&quot; target=&quot;_NEW&quot;&gt;\nhttp://www.imdb.com/title/tt2663744/&lt;/a&gt;\n\n\nFormat : AVI\nFormat/Info : Audio Video Interleave\nFile size : 1.40 GiB\nDuration : 1h 32mn\nOverall bit rate : 2 162 Kbps\nWriting application : VirtualDubMod 1.5.10.2 (build 2540/release)\nWriting library : VirtualDubMod build 2540/release\n\nVideo\nID : 0\nFormat : MPEG-4 Visual\nFormat profile : Advanced Simple@L5\nFormat settings, BVOP : 2\nFormat settings, QPel : No\nFormat settings, GMC : No warppoints\nFormat settings, Matrix : Default (H.263)\nMuxing mode : Packed bitstream\nCodec ID : XVID\nCodec ID/Hint : XviD\nDuration : 1h 32mn\nBit rate : 1 959 Kbps\nWidth : 704 pixels\nHeight : 384 pixels\nDisplay aspect ratio : 1.85:1\nFrame rate : 29.970 fps\nColor space : YUV\nChroma subsampling : 4:2:0\nBit depth : 8 bits\nScan type : Progressive\nCompression mode : Lossy\nBits/(Pixel*Frame) : 0.242\nStream size : 1.27 GiB (91%)\nWriting library : XviD 64\n\nAudio\nID : 1\nFormat : AC-3\nFormat/Info : Audio Coding 3\nMode extension : CM (complete main)\nFormat settings, Endianness : Big\nCodec ID : 2000\nDuration : 1h 32mn\nBit rate mode : Constant\nBit rate : 192 Kbps\nChannel(s) : 2 channels\nChannel positions : Front: L R\nSampling rate : 48.0 KHz\nBit depth : 16 bits\nCompression mode : Lossy\nStream size : 127 MiB (9%)\nAlignment : Aligned on interleaves\nInterleave, duration : 33 ms (1.00 video frame)\nInterleave, preload duration : 512 ms\n\n\nThree assassins deal with life, love, addiction and trust as each tries to find \nthe answers to a better life. Together, they prove to be the most trustworthy \nin this tangled web of murder, greed, friendship and betrayal.\n\n\nDVDR came with only AC3 192kb so stuck with it not into upmixing ;-)\n\nCropped side black borders but never resized back to 720\n\n\nPoster:\n\n &lt;a href=&quot;\nhttp://i.imgur.com/kkxf7DZ.jpg&quot; rel=&quot;nofollow&quot; target=&quot;_NEW&quot;&gt;\nhttp://i.imgur.com/kkxf7DZ.jpg&lt;/a&gt;\n\n\nScreenshots:\n\n &lt;a href=&quot;\nhttp://i.imgur.com/07WG3Wl.png&quot; rel=&quot;nofollow&quot; target=&quot;_NEW&quot;&gt;\nhttp://i.imgur.com/07WG3Wl.png&lt;/a&gt;\n\n &lt;a href=&quot;\nhttp://i.imgur.com/2JZloi7.png&quot; rel=&quot;nofollow&quot; target=&quot;_NEW&quot;&gt;\nhttp://i.imgur.com/2JZloi7.png&lt;/a&gt;\n\n &lt;a href=&quot;\nhttp://i.imgur.com/HrbMk4w.png&quot; rel=&quot;nofollow&quot; target=&quot;_NEW&quot;&gt;\nhttp://i.imgur.com/HrbMk4w.png&lt;/a&gt;\n\n\nSEED AND ENJOY!","torrent":{"xt":"urn:btih:759077ea3ec69716784e6ba18176bb8057c5b8fe","amp;dn":"Assassins+Tale+2013+DVDRiP+XViD+UNiQUE","amp;tr":["udp%3A%2F%2Ftracker.openbittorrent.com%3A80","udp%3A%2F%2Fopen.demonii.com%3A1337","udp%3A%2F%2Ftracker.coppersurfer.tk%3A6969","udp%3A%2F%2Fexodus.desync.com%3A6969"],"infoHash":"759077ea3ec69716784e6ba18176bb8057c5b8fe","infoHashBuffer":{"type":"Buffer","data":[117,144,119,234,62,198,151,22,120,78,107,161,129,118,187,128,87,197,184,254]},"announce":[],"urlList":[]}}